<?xml version="1.0" standalone="no"?>
<!DOCTYPE svg PUBLIC "-//W3C//DTD SVG 20010904//EN"
 "http://www.w3.org/TR/2001/REC-SVG-20010904/DTD/svg10.dtd">
<svg version="1.0" xmlns="http://www.w3.org/2000/svg"
 width="274.000000pt" height="329.000000pt" viewBox="0 0 274.000000 329.000000"
 preserveAspectRatio="xMidYMid meet">

<g transform="translate(0.000000,329.000000) scale(0.100000,-0.100000)"
fill="#000000" stroke="none">
<path d="M30 1640 l0 -1630 220 0 220 0 0 740 0 740 875 0 875 0 0 -740 0
-740 225 0 225 0 0 1107 0 1106 -137 -6 c-75 -4 -176 -7 -225 -7 l-89 0 3
-195 3 -195 -877 0 -878 0 0 725 0 725 -220 0 -220 0 0 -1630z"/>
<path d="M2220 3080 l0 -190 225 0 225 0 0 190 0 190 -225 0 -225 0 0 -190z"/>
</g>
</svg>
